<svg xmlns="http://www.w3.org/2000/svg" width="64" height="64" viewBox="0 0 64 64"><defs><style>.a{fill:#a5e872}.a,.b,.c,.d{fill-rule:evenodd}.b{fill:#e0384c}.c{fill:#6dba32}.d{fill:#478518}</style></defs><title>calendar_color</title><path class="a" d="M17.666 17.922a3.566 3.566 0 0 0-3.488 3.797l-.001.1V49.591h.001a3.567 3.567 0 0 0 3.488 3.797V17.922z"/><path class="b" d="M25.393 12.8a3.372 3.372 0 0 1 2.389.993v.001a3.37 3.37 0 0 1 .992 2.387v3.053a3.39 3.39 0 0 1-3.38 3.38 3.39 3.39 0 0 1-3.381-3.38V16.18a3.39 3.39 0 0 1 3.38-3.38zm14.695 0a3.372 3.372 0 0 1 2.388.993v.001a3.37 3.37 0 0 1 .993 2.387v3.053a3.39 3.39 0 0 1-3.381 3.38 3.39 3.39 0 0 1-3.38-3.38V16.18a3.37 3.37 0 0 1 .992-2.387h.001a3.37 3.37 0 0 1 2.387-.994z"/><path class="c" d="M17.666 16.922h1.63a1 1 0 0 1 1 1v1.312a5.068 5.068 0 0 0 .385 1.945 5.157 5.157 0 0 0 2.767 2.767 5.068 5.068 0 0 0 1.945.385 5.068 5.068 0 0 0 1.946-.385 5.157 5.157 0 0 0 2.767-2.767 5.068 5.068 0 0 0 .385-1.945v-1.312a1 1 0 0 1 1-1h2.5a1 1 0 0 1 1 1v1.312a5.068 5.068 0 0 0 .384 1.945 5.157 5.157 0 0 0 2.767 2.767 5.069 5.069 0 0 0 1.946.385 5.069 5.069 0 0 0 1.946-.385A5.157 5.157 0 0 0 44.8 21.18a5.068 5.068 0 0 0 .384-1.945v-1.312a1 1 0 0 1 1-1h1.625a4.253 4.253 0 0 1 3.207 1.38 5.133 5.133 0 0 1 1.282 3.381l.001.028v.007a1.001 1.001 0 0 1 .005.101v27.672h-.004V49.512c.002.026.003.052.003.079a1.047 1.047 0 0 1-.007.12 5.118 5.118 0 0 1-1.28 3.298 4.255 4.255 0 0 1-3.207 1.38H17.666a.967.967 0 0 1-.104-.006 4.24 4.24 0 0 1-3.099-1.376 4.917 4.917 0 0 1-1.18-2.416h-.09l-.011-.992-.001-.1-.004-.008V21.819l.004-.008v-.1l.012-.992h.09a4.916 4.916 0 0 1 1.18-2.416 4.242 4.242 0 0 1 3.099-1.376.993.993 0 0 1 .104-.005zm-1 35.264V19.124a2.237 2.237 0 0 0-.734.53 3.15 3.15 0 0 0-.758 2.085v.047l-.001.033h.004v27.672h-.004v.032l.001.048a3.15 3.15 0 0 0 .758 2.084 2.234 2.234 0 0 0 .734.53z"/><path class="d" d="M21.542 28.526h2.247a1.063 1.063 0 0 1 1.06 1.06v2.247a1.063 1.063 0 0 1-1.06 1.06h-2.247a1.063 1.063 0 0 1-1.06-1.06v-2.248a1.063 1.063 0 0 1 1.06-1.06zm19.938 6.603h2.247a1.063 1.063 0 0 1 1.06 1.06v2.247a1.063 1.063 0 0 1-1.06 1.06H41.48a1.063 1.063 0 0 1-1.06-1.06v-2.248a1.063 1.063 0 0 1 1.06-1.06zm0-6.603h2.247a1.063 1.063 0 0 1 1.06 1.06v2.247a1.063 1.063 0 0 1-1.06 1.06H41.48a1.063 1.063 0 0 1-1.06-1.06v-2.248a1.063 1.063 0 0 1 1.06-1.06zm-6.665 13.21h2.247a1.063 1.063 0 0 1 1.06 1.06v2.248a1.063 1.063 0 0 1-1.06 1.06h-2.247a1.063 1.063 0 0 1-1.06-1.06v-2.248a1.063 1.063 0 0 1 1.06-1.06zm0-6.607h2.247a1.063 1.063 0 0 1 1.06 1.06v2.247a1.063 1.063 0 0 1-1.06 1.06h-2.247a1.063 1.063 0 0 1-1.06-1.06v-2.248a1.062 1.062 0 0 1 1.06-1.06zm0-6.603h2.247a1.063 1.063 0 0 1 1.06 1.06v2.247a1.063 1.063 0 0 1-1.06 1.06h-2.247a1.063 1.063 0 0 1-1.06-1.06v-2.248a1.062 1.062 0 0 1 1.06-1.06zm-6.665 13.21h2.247a1.063 1.063 0 0 1 1.06 1.06v2.248a1.063 1.063 0 0 1-1.06 1.06H28.15a1.063 1.063 0 0 1-1.06-1.06v-2.248a1.063 1.063 0 0 1 1.06-1.06zm0-6.607h2.247a1.063 1.063 0 0 1 1.06 1.06v2.247a1.063 1.063 0 0 1-1.06 1.06H28.15a1.063 1.063 0 0 1-1.06-1.06v-2.248a1.062 1.062 0 0 1 1.06-1.06zm0-6.603h2.247a1.063 1.063 0 0 1 1.06 1.06v2.247a1.063 1.063 0 0 1-1.06 1.06H28.15a1.063 1.063 0 0 1-1.06-1.06v-2.248a1.062 1.062 0 0 1 1.06-1.06zm-6.608 13.21h2.247a1.063 1.063 0 0 1 1.06 1.06v2.248a1.063 1.063 0 0 1-1.06 1.06h-2.247a1.063 1.063 0 0 1-1.06-1.06v-2.248a1.063 1.063 0 0 1 1.06-1.06zm0-6.607h2.247a1.063 1.063 0 0 1 1.06 1.06v2.247a1.063 1.063 0 0 1-1.06 1.06h-2.247a1.063 1.063 0 0 1-1.06-1.06v-2.248a1.063 1.063 0 0 1 1.06-1.06z"/></svg>
