<svg xmlns="http://www.w3.org/2000/svg" width="64" height="64" viewBox="0 0 64 64"><defs><style>.a{fill:#ffac78}.a,.c{fill-rule:evenodd}.b{fill:#f5a62f}.c{fill:#e55a39}</style></defs><title>graph_color</title><path class="a" d="M12 35.288a3.477 3.477 0 0 0 3.632 3.417V13.1A3.476 3.476 0 0 0 12 16.517v18.77z"/><path class="b" d="M30.395 38.709h2v12.195h-2zM36.778 39.209l1.733-1 6.096 10.561-1.732 1zM18.599 48.77l6.099-10.56 1.73 1-6.098 10.56z"/><path class="c" d="M14.568 37.493l.064.023V14.29l-.061.023h-.004c-.036.013-.075.03-.115.046a2.598 2.598 0 0 0-.763.491A2.23 2.23 0 0 0 13 16.517v18.77a2.23 2.23 0 0 0 .69 1.669 2.637 2.637 0 0 0 .877.538zm-.897-24.97c.06-.026.124-.053.19-.077l-.001-.001.14-.049.003-.001.012-.004.004-.001.025-.009.004-.001.005-.002.004-.001a5.169 5.169 0 0 1 .501-.139h.004l.003-.002h.004l.003-.001.004-.001h.003l.003-.002h.004l.003-.001.003-.001h.004l.003-.001.004-.001h.003v-.001h.003l.004-.001.003-.001h.003l.003-.002h.007l.003-.002v-.089l.085-.002v-.018l.94-.01.975-.037v.03h31.553l.008.005h.098l.992.012v.092a4.829 4.829 0 0 1 2.36 1.159A4.185 4.185 0 0 1 53 16.517v18.77a4.185 4.185 0 0 1-1.357 3.155 4.828 4.828 0 0 1-2.36 1.158v.095l-.992.009h-.098l-.008.005H17.126v-.004h-.494v.034l-.952-.035h-.963v-.03l-.085-.002v-.09a5.273 5.273 0 0 1-.667-.186l-.005-.002-.072-.026a4.64 4.64 0 0 1-1.566-.96A4.186 4.186 0 0 1 11 35.289V16.517a4.187 4.187 0 0 1 1.322-3.121 4.584 4.584 0 0 1 1.35-.873zm9.542 15.063l-3.018 3.293.734.671 2.04-2.224.651-.712.731.626 2.819 2.416.387.332.324-.396 5.715-7.005.813-.997.761 1.032 2.325 3.15.381.516.406-.499 5.586-6.846-.774-.63-4.366 5.353-.813.996-.761-1.032-2.325-3.15-.381-.516-.407.499-5.963 7.31-.647.793-.775-.664-2.752-2.359-.365-.313z"/></svg>
