<svg xmlns="http://www.w3.org/2000/svg" width="64" height="64" viewBox="0 0 64 64"><defs><style>.a,.b{fill:#ffd47f}.b,.c,.d,.e{fill-rule:evenodd}.c{fill:#f2a62c}.d,.f{fill:#3e6ad1}.e{fill:#304285}</style></defs><title>guarantee_color</title><ellipse class="a" cx="33" cy="27.25" rx="10" ry="10.25"/><path class="b" d="M23.428 42.362l-2.67 10.154 3.661-.946 2.133-8.11a5.96 5.96 0 0 1-2.598-.75 5.27 5.27 0 0 1-.526-.348z"/><path class="c" d="M44.679 40.866l2.996 11.396a.997.997 0 0 1-1.253 1.209l-4.896-1.266-4.084 3.805a.998.998 0 0 1-1.652-.505l-1.121-4.029a.992.992 0 0 1 .003-.542l1.59-5.715a1.505 1.505 0 0 0 .051-.492 1.476 1.476 0 0 0-.11-.476.998.998 0 0 1 .538-1.305l.016-.006a7.91 7.91 0 0 1 .3-.135l.005-.002V42.8a3.233 3.233 0 0 1 .395-.14 4.049 4.049 0 0 1 .617-.102c.22-.022.413-.036.601-.048h.005a6.054 6.054 0 0 0 2.8-.665 4.227 4.227 0 0 0 .805-.602 5.671 5.671 0 0 0 .632-.722.996.996 0 0 1 1.76.344z"/><path class="d" d="M48.114 27.294a5.22 5.22 0 0 1-.719 2.277 7.391 7.391 0 0 0-.544 1.298 7.76 7.76 0 0 0-.19 1.45 5.148 5.148 0 0 1-.503 2.28 5.16 5.16 0 0 1-1.735 1.582 7.473 7.473 0 0 0-1.148.875l-.002.002-.004.004a7.579 7.579 0 0 0-.871 1.145 5.174 5.174 0 0 1-1.583 1.737 5.136 5.136 0 0 1-2.279.502 7.729 7.729 0 0 0-1.45.189 7.315 7.315 0 0 0-1.3.546 5.192 5.192 0 0 1-2.273.72 5.21 5.21 0 0 1-2.28-.721 7.364 7.364 0 0 0-1.295-.545 7.727 7.727 0 0 0-1.45-.188 5.128 5.128 0 0 1-2.28-.503 5.17 5.17 0 0 1-1.584-1.738 7.538 7.538 0 0 0-.875-1.148l-.013-.014a7.735 7.735 0 0 0-1.132-.858 5.152 5.152 0 0 1-1.738-1.588 5.146 5.146 0 0 1-.505-2.284 7.829 7.829 0 0 0-.187-1.445 7.31 7.31 0 0 0-.546-1.3 5.2 5.2 0 0 1-.72-2.275 5.21 5.21 0 0 1 .721-2.28 7.357 7.357 0 0 0 .545-1.295l.003-.01a7.86 7.86 0 0 0 .184-1.435 5.14 5.14 0 0 1 .504-2.284 5.155 5.155 0 0 1 1.737-1.585 7.539 7.539 0 0 0 1.149-.874v-.001a7.51 7.51 0 0 0 .873-1.147 5.169 5.169 0 0 1 1.587-1.74 5.129 5.129 0 0 1 2.277-.502 7.747 7.747 0 0 0 1.45-.189l.01-.002a7.375 7.375 0 0 0 1.29-.542 5.206 5.206 0 0 1 2.275-.719 5.2 5.2 0 0 1 2.272.718 7.344 7.344 0 0 0 1.302.545h.001a7.722 7.722 0 0 0 1.45.189 5.13 5.13 0 0 1 2.278.503 5.185 5.185 0 0 1 1.583 1.737 7.55 7.55 0 0 0 .876 1.149 7.542 7.542 0 0 0 1.147.872 5.17 5.17 0 0 1 1.74 1.588 5.13 5.13 0 0 1 .502 2.278 7.774 7.774 0 0 0 .189 1.45l.002.01a7.403 7.403 0 0 0 .541 1.288 5.22 5.22 0 0 1 .718 2.278zm-5.957 0a8.644 8.644 0 1 0-2.532 6.113 8.62 8.62 0 0 0 2.532-6.113z"/><path class="e" d="M29.073 28.136l3.467 3.348 4.793-7.648.182.114-4.86 7.755a.102.102 0 0 1-.017.023.108.108 0 0 1-.152.003l-3.562-3.44z"/><path class="f" d="M32.556 32.759a1.096 1.096 0 0 1-.764-.309l-3.562-3.439a1 1 0 0 1-.028-1.41l.149-.156a.997.997 0 0 1 .702-.308.965.965 0 0 1 .715.28l2.58 2.491 4.137-6.603a1.002 1.002 0 0 1 1.38-.316l.18.114a1 1 0 0 1 .317 1.378l-4.86 7.754a1.294 1.294 0 0 1-.133.175 1.126 1.126 0 0 1-.813.349z"/><path class="c" d="M25.942 52.205l-1.273.33-3.622.936a.997.997 0 0 1-1.254-1.209l2.66-10.115a.998.998 0 0 1 1.577-.582 4.044 4.044 0 0 0 .424.281 4.254 4.254 0 0 0 1.07.441 6.714 6.714 0 0 0 1.06.175h.021l.003.001h.014l.003.001h.007l.004.001h.01l.004.001h.003l.003.001h.008l.003.001h.007l.003.001h.004l.003.001.26.019.015.001.301.021c.189.013.38.026.601.049a4.063 4.063 0 0 1 .613.101l.003.001a3.781 3.781 0 0 1 .557.21c.142.064.33.156.516.249l.015.007a6.128 6.128 0 0 0 2.801.842 4.396 4.396 0 0 0 .53-.032 4.3 4.3 0 0 0 .486-.086.997.997 0 0 1 1.195 1.234l-2.91 10.46a.997.997 0 0 1-1.64.464l-4.085-3.805zm-2.339-1.454l1.701-6.468q-.14-.03-.28-.067a6.318 6.318 0 0 1-.964-.334l-1.905 7.244z"/></svg>
