<svg width="64" height="64" viewBox="0 0 64 64" fill="none" xmlns="http://www.w3.org/2000/svg">
<circle cx="32" cy="32" r="32" fill="#00B8C2"/>
<path d="M12.4455 25.8H15.0375V34.888H20.6535V37H12.4455V25.8ZM25.9593 37.128C25.0526 37.128 24.2366 36.9413 23.5113 36.568C22.7966 36.184 22.2366 35.656 21.8313 34.984C21.426 34.312 21.2233 33.5493 21.2233 32.696C21.2233 31.8427 21.426 31.08 21.8313 30.408C22.2366 29.736 22.7966 29.2133 23.5113 28.84C24.2366 28.456 25.0526 28.264 25.9593 28.264C26.866 28.264 27.6766 28.456 28.3913 28.84C29.106 29.2133 29.666 29.736 30.0713 30.408C30.4766 31.08 30.6793 31.8427 30.6793 32.696C30.6793 33.5493 30.4766 34.312 30.0713 34.984C29.666 35.656 29.106 36.184 28.3913 36.568C27.6766 36.9413 26.866 37.128 25.9593 37.128ZM25.9593 35.08C26.5993 35.08 27.122 34.8667 27.5273 34.44C27.9433 34.0027 28.1513 33.4213 28.1513 32.696C28.1513 31.9707 27.9433 31.3947 27.5273 30.968C27.122 30.5307 26.5993 30.312 25.9593 30.312C25.3193 30.312 24.7913 30.5307 24.3753 30.968C23.9593 31.3947 23.7513 31.9707 23.7513 32.696C23.7513 33.4213 23.9593 34.0027 24.3753 34.44C24.7913 34.8667 25.3193 35.08 25.9593 35.08ZM41.2277 28.392V35.56C41.2277 37.1387 40.817 38.312 39.9957 39.08C39.1743 39.848 37.9743 40.232 36.3957 40.232C35.5637 40.232 34.7743 40.1307 34.0277 39.928C33.281 39.7253 32.6623 39.432 32.1717 39.048L33.1637 37.256C33.5263 37.5547 33.985 37.7893 34.5397 37.96C35.0943 38.1413 35.649 38.232 36.2037 38.232C37.0677 38.232 37.7023 38.0347 38.1077 37.64C38.5237 37.256 38.7317 36.6693 38.7317 35.88V35.512C38.081 36.2267 37.1743 36.584 36.0117 36.584C35.2223 36.584 34.497 36.4133 33.8357 36.072C33.185 35.72 32.6677 35.2293 32.2837 34.6C31.8997 33.9707 31.7077 33.2453 31.7077 32.424C31.7077 31.6027 31.8997 30.8773 32.2837 30.248C32.6677 29.6187 33.185 29.1333 33.8357 28.792C34.497 28.44 35.2223 28.264 36.0117 28.264C37.2597 28.264 38.209 28.6747 38.8597 29.496V28.392H41.2277ZM36.5077 34.536C37.169 34.536 37.7077 34.344 38.1237 33.96C38.5503 33.5653 38.7637 33.0533 38.7637 32.424C38.7637 31.7947 38.5503 31.288 38.1237 30.904C37.7077 30.5093 37.169 30.312 36.5077 30.312C35.8463 30.312 35.3023 30.5093 34.8757 30.904C34.449 31.288 34.2357 31.7947 34.2357 32.424C34.2357 33.0533 34.449 33.5653 34.8757 33.96C35.3023 34.344 35.8463 34.536 36.5077 34.536ZM47.6468 37.128C46.7401 37.128 45.9241 36.9413 45.1988 36.568C44.4841 36.184 43.9241 35.656 43.5188 34.984C43.1135 34.312 42.9108 33.5493 42.9108 32.696C42.9108 31.8427 43.1135 31.08 43.5188 30.408C43.9241 29.736 44.4841 29.2133 45.1988 28.84C45.9241 28.456 46.7401 28.264 47.6468 28.264C48.5535 28.264 49.3641 28.456 50.0788 28.84C50.7935 29.2133 51.3535 29.736 51.7588 30.408C52.1641 31.08 52.3668 31.8427 52.3668 32.696C52.3668 33.5493 52.1641 34.312 51.7588 34.984C51.3535 35.656 50.7935 36.184 50.0788 36.568C49.3641 36.9413 48.5535 37.128 47.6468 37.128ZM47.6468 35.08C48.2868 35.08 48.8095 34.8667 49.2148 34.44C49.6308 34.0027 49.8388 33.4213 49.8388 32.696C49.8388 31.9707 49.6308 31.3947 49.2148 30.968C48.8095 30.5307 48.2868 30.312 47.6468 30.312C47.0068 30.312 46.4788 30.5307 46.0628 30.968C45.6468 31.3947 45.4388 31.9707 45.4388 32.696C45.4388 33.4213 45.6468 34.0027 46.0628 34.44C46.4788 34.8667 47.0068 35.08 47.6468 35.08Z" fill="white"/>
</svg>

