<svg xmlns="http://www.w3.org/2000/svg" width="64" height="64" viewBox="0 0 64 64"><defs><style>.a,.b{fill:#304285}.a,.c,.d,.e,.f{fill-rule:evenodd}.c{fill:#f5a62f}.d{fill:#ffac78}.e{fill:#ffd47f}.f{fill:#e55a39}</style></defs><title>professional_color</title><path class="a" d="M45.57 43.674a8.42 8.42 0 0 0 .159-.105z"/><path class="b" d="M45.593 43.935a.283.283 0 0 1-.238-.119.264.264 0 0 1 .06-.379l.156-.104a.283.283 0 0 1 .318.47l-.12.08-.008.006-.032.021-.003-.004a.324.324 0 0 1-.133.029z"/><path class="a" d="M45.104 43.954z"/><path class="b" d="M45.104 44.237a.283.283 0 0 1-.14-.529l.201-.116a.283.283 0 0 1 .388.102.279.279 0 0 1 .038.143.282.282 0 0 1-.14.245l-.206.118a.283.283 0 0 1-.14.037z"/><path class="a" d="M44.617 44.211q.22-.11.411-.215-.19.105-.411.215z"/><path class="b" d="M44.616 44.494a.283.283 0 0 1-.126-.537q.216-.107.4-.209a.284.284 0 0 1 .386.11.28.28 0 0 1 .036.138.284.284 0 0 1-.146.248c-.13.072-.273.147-.425.222a.285.285 0 0 1-.125.028z"/><path class="a" d="M43.81 44.578q.22-.092.421-.183-.2.091-.422.183z"/><path class="b" d="M43.81 44.861a.284.284 0 0 1-.262-.173.285.285 0 0 1 .152-.372q.217-.089.413-.18a.284.284 0 0 1 .376.14.285.285 0 0 1-.14.376c-.136.063-.28.124-.43.188a.29.29 0 0 1-.11.021z"/><path class="a" d="M42.697 44.995q.41-.138.767-.277-.358.14-.767.277z"/><path class="b" d="M42.696 45.278a.283.283 0 0 1-.09-.551q.403-.137.755-.273a.281.281 0 0 1 .367.161.27.27 0 0 1 .02.103.282.282 0 0 1-.182.263c-.242.095-.502.19-.78.283a.284.284 0 0 1-.09.014z"/><path class="c" d="M54.26 41.783h-1.574a1.565 1.565 0 0 1-1.135-.441l-.001-.002-.005-.005a1.597 1.597 0 0 1-.444-1.137l.002-.035.002-.055c.065-1.367.077-1.607 1.257-3.67l-.002-6.483a.283.283 0 0 1 .188-.267l1.663-.59a.283.283 0 0 1 .36.173.28.28 0 0 1 .017.094v7.082c.17.34.304.596.421.822a4.993 4.993 0 0 1 .836 2.93 1.596 1.596 0 0 1-.45 1.141v.002l-.007.006a1.565 1.565 0 0 1-1.128.436zm-3.157-1.62l.012-.054a.283.283 0 0 0-.012.054z"/><path class="d" d="M42.417 46.118V34.099l4.024-1.253V44.02s-.98 1.126-4.024 2.097z"/><path class="e" d="M38.688 30.718l-4.396 1.334a11.446 11.446 0 0 1-5.647 0L8.127 25.826c-1.553-.472-1.553-1.243 0-1.715l4.687-1.422z"/><path class="c" d="M34.581 33.005a12.289 12.289 0 0 1-6.226 0L7.839 26.779a3.296 3.296 0 0 1-1.441-.784 1.464 1.464 0 0 1-.431-1.026h-.004a1.462 1.462 0 0 1 .434-1.022l.002-.002-.002-.002a3.302 3.302 0 0 1 1.442-.785l4.648-1.41.003-.001.002-.001a.907.907 0 0 1 .077-.023l15.787-4.79a12.289 12.289 0 0 1 6.226 0L55.1 23.157a3.3 3.3 0 0 1 1.441.785 1.458 1.458 0 0 1 .43 1.026h.005a1.465 1.465 0 0 1-.435 1.026 3.296 3.296 0 0 1-1.44.784l-16.082 4.88-.084.025-4.353 1.32zm-.578-1.906l1.289-.391-22.483-6.977-4.077 1.237 20.202 6.13a9.24 9.24 0 0 0 2.534.307 9.244 9.244 0 0 0 2.535-.306z"/><path class="f" d="M16.792 31.893l12.082 3.763a8.82 8.82 0 0 0 2.74.38 10.807 10.807 0 0 0 2.535-.407l7.91-2.464.003-.001h.001l.004-.002.004-.001.004-.002.003-.001.004-.001.004-.002.004-.001.004-.001.003-.002h.004v-.001l.004-.001.004-.001.004-.002h.003l.004-.002h.002l.002-.001.004-.001.004-.002h.004l.004-.002h.002l.002-.001h.003l.004-.002.004-.001.004-.001.004-.001.004-.001.004-.001.004-.001.004-.001.004-.001 3.962-1.234a.999.999 0 0 1 1.295.953h.001V44.02a.998.998 0 0 1-.387.79 11.23 11.23 0 0 1-4.114 2.183 1.01 1.01 0 0 1-.073.027 27.283 27.283 0 0 1-4.606 1.036 47.846 47.846 0 0 1-6.793.443c-11.235 0-15.002-3.123-15.614-3.712a.998.998 0 0 1-.358-.767V32.846h.001a.999.999 0 0 1 1.295-.953zm26.625 2.94V44.7a8.359 8.359 0 0 0 2.024-1.105v-9.391z"/></svg>
