<svg xmlns="http://www.w3.org/2000/svg" width="64" height="64" viewBox="0 0 64 64"><defs><style>.a{fill:#3f88d5}.a,.b,.c{fill-rule:evenodd}.b,.d{fill:#a6eff7}.c{fill:#3fc7d5}</style></defs><title>search_color</title><path class="a" d="M40.4 13.611a1 1 0 0 0-1.741.671v5.66a4.276 4.276 0 0 0 4.265 4.265H49v-.003a.997.997 0 0 0 .687-1.72L40.4 13.612z"/><path class="b" d="M26.285 49.626h-.84a3.458 3.458 0 0 1-3.447-3.448v-3.727l.52-.52a7.881 7.881 0 0 0 3.04.605c.245 0 .487-.011.727-.033v7.123zm-4.287-22.057v-9.84a3.457 3.457 0 0 1 3.448-3.447h.839v12.476q-.36-.034-.728-.034a7.872 7.872 0 0 0-3.559.845z"/><path class="c" d="M50 28v18.178a4.46 4.46 0 0 1-4.448 4.448H25.446a4.46 4.46 0 0 1-4.448-4.448v-3.727a.998.998 0 0 1 .293-.707l.017-.017.503-.503a1 1 0 0 1 1.144-.192 6.874 6.874 0 0 0 1.245.371 6.952 6.952 0 0 0 1.357.133c.15 0 .259-.001.323-.004.116-.006.221-.013.315-.021a.997.997 0 0 1 1.082.902c.003.03.004.06.004.09h.004v.191h15.039v-1.196H30.856v-.004a.996.996 0 0 1-.668-1.734 7.01 7.01 0 0 0 1.293-1.569 1 1 0 0 1 .902-.568h9.94v-1.196h-8.899v-.003c-.032 0-.064-.002-.097-.005a.997.997 0 0 1-.895-1.09 6.554 6.554 0 0 0 .032-.698q0-.264-.014-.474a7.076 7.076 0 0 0-.038-.4 1.017 1.017 0 0 1-.021-.205 1 1 0 0 1 1-1h8.933v-1.196H32.21v-.002a.997.997 0 0 1-.84-.459 6.907 6.907 0 0 0-.668-.875 6.998 6.998 0 0 0-.743-.716 1 1 0 0 1 .568-1.823h4.15v-1.196h-7.392v.473a1 1 0 0 1-1.171.985q-.108-.008-.234-.014a8.082 8.082 0 0 0-.323-.005 6.94 6.94 0 0 0-1.601.186 6.847 6.847 0 0 0-1.508.55.998.998 0 0 1-1.448-.891h-.002v-9.84a4.435 4.435 0 0 1 1.306-3.141.99.99 0 0 1 .064-.06 4.43 4.43 0 0 1 3.078-1.246h9.42a1 1 0 0 1 1 1v5.66h-.005l.001.105v.008l.002.047a.959.959 0 0 1 .006.112.998.998 0 0 1-.318.732.994.994 0 0 1 .505.65 7.003 7.003 0 0 0 .707 1.792 7.107 7.107 0 0 0 1.077 1.445.937.937 0 0 1 .092.08l.01.01.008.007a7.116 7.116 0 0 0 2.293 1.537 6.96 6.96 0 0 0 2.68.533H49a1 1 0 0 1 1 1zM25.285 48.62v-5.087a8.932 8.932 0 0 1-1.476-.169q-.41-.081-.81-.202v3.016a2.459 2.459 0 0 0 2.286 2.442zm0-23.335v-9.997a2.446 2.446 0 0 0-1.526.67l-.041.044a2.44 2.44 0 0 0-.72 1.728v8.368q.246-.074.497-.133a8.907 8.907 0 0 1 1.79-.237v-.443zm2-2.875h6.804v-.583h.004a.997.997 0 0 1 .212-.613h-7.02v1.196z"/><circle class="d" cx="25.558" cy="34.63" r="7.906"/><path class="a" d="M25.557 25.724a8.906 8.906 0 1 1-6.297 2.609 8.88 8.88 0 0 1 6.297-2.61zm4.884 4.022a6.908 6.908 0 1 0 2.023 4.885 6.885 6.885 0 0 0-2.023-4.885z"/><path class="a" d="M10.431 44.616l7.422-7.422a.5.5 0 0 1 .832.208 7.44 7.44 0 0 0 4.024 4.068.5.5 0 0 1 .27.653.494.494 0 0 1-.108.161l-7.385 7.387-.03.028a3.578 3.578 0 0 1-5.021-.028l-.003-.003v.001h-.001l-.029-.031a3.58 3.58 0 0 1 .029-5.022z"/></svg>
