<svg xmlns="http://www.w3.org/2000/svg" width="64" height="64" viewBox="0 0 64 64"><defs><style>.a,.d{fill:#3f88d5}.a,.b,.c{fill-rule:evenodd}.b{fill:#3fc7d5}.c{fill:#8fd8e0}</style></defs><title>teacher_color</title><path class="a" d="M31.948 39.248a3.086 3.086 0 1 1-4.364 0 3.083 3.083 0 0 1 4.364 0z"/><path class="b" d="M28.34 45.002h2.853a2.562 2.562 0 0 1 1.814.754l.016.018a2.562 2.562 0 0 1 .738 1.797v1.301a1.265 1.265 0 0 1-.372.895v.001l-.005.004a1.265 1.265 0 0 1-.89.369h-5.455a1.266 1.266 0 0 1-.895-.373h-.001l-.004-.005a1.264 1.264 0 0 1-.368-.89V47.57a2.576 2.576 0 0 1 2.569-2.569zm9.753 0h2.853a2.563 2.563 0 0 1 1.815.754l.016.018a2.562 2.562 0 0 1 .738 1.797v1.301a1.271 1.271 0 0 1-1.269 1.269h-5.454a1.264 1.264 0 0 1-.895-.373v-.001l-.006-.005a1.266 1.266 0 0 1-.367-.89v-1.301a2.576 2.576 0 0 1 2.57-2.569zm9.753 0H50.7a2.563 2.563 0 0 1 1.815.754l.016.018a2.562 2.562 0 0 1 .738 1.797v1.301a1.266 1.266 0 0 1-.372.895l-.001.001-.004.004a1.265 1.265 0 0 1-.89.369h-5.456a1.266 1.266 0 0 1-.895-.373l-.017-.018a1.264 1.264 0 0 1-.356-.878v-1.301a2.576 2.576 0 0 1 2.57-2.569z"/><path class="a" d="M51.455 39.248a3.085 3.085 0 0 1-4.347 4.38l-.017-.016a3.086 3.086 0 1 1 4.364-4.364zM41.701 39.248a3.328 3.328 0 1 1-.017-.016z"/><path class="b" d="M28.92 13.817h21.2a4.678 4.678 0 0 1 4.663 4.665v13.665a4.678 4.678 0 0 1-4.664 4.665h-21.2a4.65 4.65 0 0 1-3.294-1.37l-.016-.018a4.65 4.65 0 0 1-1.354-3.277v-1.081a.283.283 0 0 1 .236-.28 118.054 118.054 0 0 0 3.595-.83c.388-.095.846-.21 1.347-.336a.283.283 0 0 1 .338.19 4.015 4.015 0 0 0 .385.78v.001h.001a4.04 4.04 0 0 0 .512.648.293.293 0 0 1 .047.037l.015.016a4.1 4.1 0 0 0 1.298.864 3.986 3.986 0 0 0 1.534.307 4.043 4.043 0 0 0 3.729-2.49v-.002a4.018 4.018 0 0 0 .305-1.542c0-.107-.004-.213-.013-.314a.283.283 0 0 1 .26-.305h.035a3.54 3.54 0 0 0 .195-.013h.002v-.001c.079-.007.151-.016.215-.024a.283.283 0 0 1 .319.32 3.956 3.956 0 0 0-.03.285l-.001.007a4.23 4.23 0 0 0-.01.28 4.02 4.02 0 0 0 .306 1.543l.004.012a4.04 4.04 0 0 0 .83 1.255.3.3 0 0 1 .047.038l.005.005.012.014a4.064 4.064 0 0 0 1.296.863 4.02 4.02 0 0 0 2.954.045 4.04 4.04 0 0 0 1.24-.75l.01-.008c.03-.023.06-.05.093-.079l.015-.013.075-.072a4.038 4.038 0 0 0 .876-1.309 4.021 4.021 0 0 0 .305-1.543 3.955 3.955 0 0 0-.04-.565 4.027 4.027 0 0 0-.122-.557.283.283 0 0 1 .05-.255l.948-1.193a.282.282 0 0 1 .24-.106l.114.005h.005l.102.002v-.002a4.037 4.037 0 0 0 3.73-5.575l-.005-.012a4.04 4.04 0 0 0-5.267-2.175l-.012.005a4.043 4.043 0 0 0-2.48 3.723 3.926 3.926 0 0 0 .04.565 4.063 4.063 0 0 0 .123.557.283.283 0 0 1-.05.256l-.949 1.193a.282.282 0 0 1-.24.106l-.113-.005h-.005l-.103-.002v.001a4.124 4.124 0 0 0-.574.04.283.283 0 0 1-.32-.32c.014-.092.024-.188.031-.285v-.007c.007-.088.01-.182.01-.28a3.977 3.977 0 0 0-.258-1.413 4.071 4.071 0 0 0-.745-1.24l-.016-.02-.002-.003-.073-.084a2.207 2.207 0 0 0-.088-.093 4.038 4.038 0 0 0-1.309-.877 4.02 4.02 0 0 0-1.543-.305 3.977 3.977 0 0 0-1.412.257 4.069 4.069 0 0 0-1.24.746l-.02.016-.003.002-.084.073a2.27 2.27 0 0 0-.093.088 4.045 4.045 0 0 0-.696.932l-.012.02a3.99 3.99 0 0 0-.388 1.066.283.283 0 0 1-.47.15 3.81 3.81 0 0 0-1.289-.71 5.77 5.77 0 0 0-1.711-.275h-.107c-.764.004-1.646.011-2.604.025-.95.014-1.978.035-3.04.068a.282.282 0 0 1-.29-.274v-.008h-.002v-3.438a4.651 4.651 0 0 1 1.37-3.294h.001v-.001a4.65 4.65 0 0 1 3.294-1.37zm18.912 12.177l.102.026a.284.284 0 0 0-.102-.026zm-5.126-1.362l-.103-.027a.281.281 0 0 0 .103.027z"/><path class="a" d="M15.385 23.37a4.663 4.663 0 0 1-3.298-7.964 4.67 4.67 0 0 1 7.968 3.298 4.673 4.673 0 0 1-4.67 4.665z"/><path class="c" d="M10.052 28.333c-.625 6.137.51 9.358.51 9.358a5.83 5.83 0 0 0 1.156 1.869c.783 6.692 1.342 8.466 1.621 9.104.347.791 2.704 1.057 4.118.605a1.385 1.385 0 0 1-.894-.606c-.28-.637-.838-2.411-1.622-9.103a5.83 5.83 0 0 1-1.156-1.869c-1.264-3.588-.844-8.04.091-11.73-2.293.518-3.838 1.27-3.824 2.372z"/><path class="d" d="M40.965 27.733l-2.318-2.317.707-.707 2.318 2.317zm3.161-.18l-.783-.621 3.068-3.86.783.622zm-8.983-.149l-.745-.667 1.735-1.938.744.667z"/><path class="a" d="M37.716 21.96a1.817 1.817 0 1 1-1.817 1.818 1.817 1.817 0 0 1 1.817-1.817zm10.218-1.817a1.817 1.817 0 1 1-1.817 1.818 1.817 1.817 0 0 1 1.817-1.817zm-5.33 6.705a1.817 1.817 0 1 1-1.818 1.817 1.817 1.817 0 0 1 1.817-1.817zm-9.041-.236a1.817 1.817 0 1 1-1.817 1.817 1.817 1.817 0 0 1 1.817-1.817z"/><path class="d" d="M42.604 30.982a2.317 2.317 0 1 1 2.317-2.317 2.32 2.32 0 0 1-2.317 2.317zm0-3.634a1.317 1.317 0 1 0 1.317 1.317 1.319 1.319 0 0 0-1.317-1.317zm-9.04 3.398a2.317 2.317 0 1 1 2.316-2.317 2.32 2.32 0 0 1-2.317 2.317zm0-3.634a1.317 1.317 0 1 0 1.316 1.317 1.319 1.319 0 0 0-1.317-1.317zm4.152-1.017a2.317 2.317 0 1 1 2.317-2.317 2.32 2.32 0 0 1-2.317 2.317zm0-3.634a1.317 1.317 0 1 0 1.317 1.317 1.319 1.319 0 0 0-1.317-1.317zm10.219 1.817a2.317 2.317 0 1 1 2.316-2.317 2.32 2.32 0 0 1-2.316 2.317zm0-3.634a1.317 1.317 0 1 0 1.316 1.317 1.319 1.319 0 0 0-1.316-1.317z"/><path class="a" d="M16.341 50.471l-.2.01v-.002a7.464 7.464 0 0 1-1.357-.068 2.93 2.93 0 0 1-2.359-1.35 12.275 12.275 0 0 1-.688-2.484c-.267-1.33-.594-3.382-.974-6.591a7.189 7.189 0 0 1-1.116-1.9 1.017 1.017 0 0 1-.03-.082c-.004-.01-1.198-3.407-.561-9.732a2.633 2.633 0 0 1 1.543-2.207 10.723 10.723 0 0 1 2.84-1.026l.053-.014.15-.034.007-.002.008-.002.008-.001.008-.002a54.028 54.028 0 0 1 8.428-.968c3.029-.157 6.037-.185 8.13-.198h.028a2.952 2.952 0 0 1 1.954.604 1.457 1.457 0 0 1 .496 1.022 1.577 1.577 0 0 1-.305 1.001 3.32 3.32 0 0 1-1.916 1.146v-.003c-1.299.333-2.696.683-3.941.978-1.056.25-2.143.495-3.194.712l-.033.008c-.09.019-.215.042-.35.067l-.033.007c-.53.1-1.177.222-1.236.253a111.066 111.066 0 0 1-.784 10.007l-.004.053c-.39 3.338-.674 5.445-.907 6.808a9.59 9.59 0 0 1-.654 2.514 1.1 1.1 0 0 1-.035.072 2.1 2.1 0 0 1-.713.76 3.47 3.47 0 0 1-.925.418v-.001l-.052.014h-.003l-.003.001h-.003l-.002.001q-.102.029-.207.054l-.006.002v.002l-.039.01-.048.01-.072.016v-.003a6.418 6.418 0 0 1-.646.097v.002a7.04 7.04 0 0 1-.226.02l-.03.001zm-.91-1.996l-.004-.011-.003-.009-.006-.017v-.003l-.007-.02-.001-.004-.005-.016-.004-.01-.003-.01-.005-.018-.001-.004-.006-.02-.002-.004-.005-.019-.003-.01-.004-.011-.005-.018-.001-.004-.007-.023v-.002l-.007-.02-.003-.01-.003-.013-.005-.018-.002-.005-.007-.024v-.002l-.006-.022-.003-.01-.004-.014-.005-.018-.002-.006-.007-.025v-.002l-.007-.023-.003-.01-.004-.016-.005-.017-.002-.008-.007-.026v-.001l-.007-.026-.003-.009-.004-.017-.005-.018-.002-.01-.008-.027-.007-.028-.002-.008-.005-.02-.005-.017-.002-.011-.007-.027v-.002l-.008-.029-.002-.008-.006-.021-.004-.018-.003-.012-.007-.028v-.002l-.008-.03-.002-.008-.005-.023-.005-.018-.003-.014-.006-.027-.001-.004-.008-.032-.002-.007-.006-.025-.004-.017-.003-.016-.007-.028-.001-.005-.008-.033-.001-.006-.007-.028-.004-.017-.003-.017-.007-.028-.001-.007-.008-.035-.001-.004-.007-.03-.003-.017-.005-.02-.006-.028-.002-.007-.008-.037v-.004l-.008-.033-.003-.015-.005-.022-.006-.028-.002-.01-.008-.038v-.002l-.008-.036-.003-.015-.005-.024-.006-.028-.002-.011-.009-.04v-.001l-.008-.04-.003-.014-.005-.026-.006-.027-.002-.014-.009-.04c-.266-1.33-.593-3.383-.974-6.592l-.013-.016v-.001l-.014-.016-.001-.001-.013-.016-.001-.002-.013-.016-.002-.002-.013-.016-.002-.003-.012-.016-.003-.004-.012-.015-.003-.004-.012-.016-.004-.005-.012-.015-.004-.005-.011-.015-.005-.007-.011-.014-.006-.007-.01-.014-.006-.008-.01-.013-.007-.01-.01-.012-.007-.01-.01-.013-.007-.01-.009-.013-.008-.011-.008-.012-.01-.013-.008-.01-.01-.014-.007-.01-.01-.015-.007-.01-.01-.016-.007-.009-.012-.017-.006-.008-.012-.018-.006-.008-.012-.019-.005-.007-.014-.02-.004-.006-.014-.021-.004-.006-.015-.023-.003-.004-.016-.024-.002-.004-.016-.025-.002-.003-.017-.026-.001-.002-.018-.028v-.001l-.019-.029-.018-.03-.019-.03v-.001l-.019-.03-.001-.001-.017-.029-.002-.003-.016-.028-.003-.004-.016-.027-.003-.006-.015-.026-.004-.006-.015-.026-.004-.008-.014-.025-.006-.008-.013-.024-.006-.01-.012-.024-.007-.01-.012-.023-.007-.013-.011-.021-.008-.014-.01-.02-.008-.015-.01-.02-.01-.016-.009-.02-.009-.016-.009-.018-.01-.019-.008-.017-.01-.02-.008-.016-.01-.021-.008-.015-.01-.023-.008-.014-.011-.024-.006-.013-.012-.025-.006-.012-.013-.027-.004-.011-.013-.028-.005-.01-.013-.03-.004-.009-.014-.03-.003-.008-.014-.033-.003-.006-.014-.034-.002-.005-.016-.036-.001-.004-.016-.038v-.002l-.016-.039v-.001l-.002-.002v-.001l-.002-.004a.968.968 0 0 1-.041-.1A16.698 16.698 0 0 1 12 32.38v-.098l.001-.061v-.036l.002-.044v-.053l.001-.026.002-.072v-.008l.002-.079.003-.08v-.028l.002-.051.002-.046.001-.033.003-.064v-.016l.004-.08v-.002l.003-.077.002-.02.002-.06.003-.037.002-.042.003-.056.001-.023.005-.074v-.005l.005-.08v-.012l.005-.067.002-.03.004-.049.003-.048.002-.031.006-.067v-.013l.007-.079v-.004l.006-.075.002-.022.005-.057.003-.04.004-.04.005-.057.002-.02.007-.077v-.003l.008-.079.001-.015.007-.064.003-.032.005-.047.005-.05.003-.028.008-.068v-.011l.01-.079v-.007l.009-.071.003-.025.006-.054.005-.042.004-.036.008-.06.002-.018.01-.078.01-.079.002-.017.008-.061.005-.034.006-.044.007-.052.003-.026.01-.07.001-.008.012-.078v-.009l.01-.068.005-.027.007-.05.007-.045.005-.034.01-.06.002-.017.012-.077v-.002l.012-.076.003-.018.01-.059.006-.036.006-.04.01-.054.003-.023.012-.071.001-.006.014-.077.002-.01.011-.066.005-.029.009-.048.008-.045.005-.03.012-.064.002-.013.015-.076v-.004l.014-.072.004-.02.01-.056.008-.038.007-.038.01-.054.005-.02a5.688 5.688 0 0 0-.936.418.93.93 0 0 0-.551.53 1.066 1.066 0 0 1-.005.11c-.576 5.665.37 8.669.457 8.93a4.707 4.707 0 0 0 .925 1.492.996.996 0 0 1 .29.639c.384 3.276.714 5.355.983 6.694a10.703 10.703 0 0 0 .555 2.08 3.366 3.366 0 0 0 .82.169q.175.025.357.04z"/></svg>
